<svg xmlns="http://www.w3.org/2000/svg" version="1.1" xmlns:xlink="http://www.w3.org/1999/xlink" xmlns:svgjs="http://svgjs.dev/svgjs" width="1440" height="560" preserveAspectRatio="none" viewBox="0 0 1440 560"><g mask="url(&quot;#SvgjsMask1707&quot;)" fill="none"><rect width="1440" height="560" x="0" y="0" fill="url(&quot;#SvgjsLinearGradient1708&quot;)"></rect><path d="M35.59 140C25.32 118.49 5.58 128.63 0 106.67C-12.21 58.63 -30.27 23.06 0 0C39.73 -30.27 70 0 140 0C210 0 210 0 280 0C350 0 350 0 420 0C490 0 490 0 560 0C625.53 0 671.45 -32.89 691.06 0C713.18 37.11 640.43 78.46 643.46 140C644.9 169.17 674.61 181.41 700 181.41C719.03 181.41 729.71 164.67 732.31 140C739.26 73.96 690.14 37.64 719.09 0C743.98 -32.36 779.55 0 840 0C910 0 910 0 980 0C1050 0 1050 0 1120 0C1172.74 0 1178.31 -12.67 1225.48 0C1248.31 6.13 1239.22 37.61 1260 37.61C1294.66 37.61 1296.31 10.76 1336.36 0C1366.31 -8.04 1368.18 0 1400 0C1470 0 1503.48 -33.48 1540 0C1573.48 30.69 1549.36 69.84 1540 128.33C1538.16 139.84 1517.6 130.82 1517.6 140C1517.6 156.66 1536.48 158 1540 180C1547.68 228 1540 230 1540 280C1540 304.14 1546.47 305.48 1540 328.28C1526.62 375.48 1500.3 376.55 1500.3 420C1500.3 448.49 1531.52 442.25 1540 472.16C1551.37 512.25 1562.4 538.48 1540 560C1516.68 582.4 1490.6 571 1448.57 560C1420.6 552.69 1423.45 523.38 1400 523.38C1379 523.38 1384.4 553.53 1359.66 560C1314.4 571.84 1309.83 560 1260 560C1190 560 1190 560 1120 560C1065.14 560 1010.27 583.86 1010.27 560C1010.27 525.02 1065.49 501.48 1120 442.32C1129.98 431.48 1135.98 434.01 1139.25 420C1154.9 352.85 1165.11 342.62 1157.84 280C1155.48 259.66 1136.41 254.07 1120 254.07C1108.85 254.07 1113.32 268.63 1102.72 280C1043.32 343.72 1044.17 346 980 404.25C967.06 416 953.81 404.5 948.5 420C927.14 482.37 960.33 516.57 926.67 560C906.08 586.57 883.34 560 840 560C792.11 560 790.11 567.87 744.21 560C720.11 555.87 720.99 536 700 536C684.15 536 688.44 556.93 670.53 560C618.44 568.93 615.26 560 560 560C491.52 560 490.86 561.54 423.04 560C420.86 559.95 421.94 556.82 420 556.82C415.04 556.82 414.83 559.87 409.23 560C344.83 561.46 344.62 560 280 560C210 560 210 560 140 560C70 560 35 595 0 560C-35 525 0 490 0 420C0 368.2 -22.09 353.78 0 316.4C19.27 283.78 75.98 313.48 82.73 280C93.77 225.28 66.69 205.16 35.59 140" stroke="rgba(255, 0, 0, 1)" stroke-width="2"></path><path d="M280 95C258.59 105.17 256.23 120.26 256.23 140C256.23 151.39 265.9 154.17 280 157.26C347.79 172.12 353.46 181.79 420 175.9C450.91 173.16 474.9 163.19 474.9 140C474.9 106.35 458.82 71.18 420 62.22C361.37 48.68 340.48 66.28 280 95" stroke="rgba(255, 0, 0, 1)" stroke-width="2"></path><path d="M840 244.26C818.4 244.26 794.59 259.11 794.59 280C794.59 307.52 819.04 341.09 840 341.09C859.43 341.09 875.37 308.27 875.37 280C875.37 259.86 858.79 244.26 840 244.26" stroke="rgba(201, 0, 255, 1)" stroke-width="2"></path><path d="M94.92 140C94.92 78.85 116.34 13.33 140 13.33C163.98 13.33 151.61 87.13 190.19 140C221.61 183.07 229.36 187.41 280 205.21C344.27 227.8 353.75 200.95 420 220.77C478.75 238.35 478.65 245.79 530 280C548.65 292.43 544.1 314.05 560 314.05C577.63 314.05 575.64 292.75 597.06 280C645.64 251.08 653.01 230.7 700 230.7C728.13 230.7 725.92 253.43 747.3 280C795.92 340.44 791.29 344.75 840 404.73C848.14 414.75 860.74 407.93 861 420C862.41 485.57 853.59 491.61 843.33 560C843.09 561.61 841.66 560 840 560C838.16 560 837.94 560.86 836.32 560C767.94 523.86 764.71 486 700 486C651.11 486 658.45 533.93 609.12 560C588.45 570.93 584.56 560 560 560C529.57 560 523.43 574.36 499.13 560C453.43 532.99 469.17 498.76 420 477.27C359.61 450.87 331.87 440.43 280 464.21C241.65 481.79 275.32 535.53 239.56 560C205.32 583.43 189.78 560 140 560C70 560 70 560 0 560C0 560 0 560 0 560C0 490 0 490 0 420C0 403.2 -12.43 395.4 0 386.4C57.57 344.71 73.6 357.71 140 318.62C163.96 304.51 180.73 301.82 180.73 280C180.73 250.51 159.82 248.34 140 216C116.91 178.34 94.92 180.19 94.92 140" stroke="rgba(99, 0, 255, 1)" stroke-width="2"></path><path d="M128.8 0C128.8 13.24 47.05 51.11 0 51.11C-17.35 51.11 -18.3 7.26 0 0C46.1 -18.3 128.8 -12.31 128.8 0" stroke="rgba(0, 228, 255, 1)" stroke-width="2"></path><path d="M543.53 140C508.7 68.13 459.83 43.97 465 0C468.06 -26.03 512.5 0 560 0C588.3 0 614.34 -19.58 616.6 0C622.42 50.42 596.37 70 576.15 140C568.07 168 568.15 196 560 196C551.84 196 556.2 166.13 543.53 140" stroke="rgba(0, 228, 255, 1)" stroke-width="2"></path><path d="M770.77 140C770.77 83.3 803.2 76.58 840 16.47C846.05 6.58 845.37 1.31 856.47 0C915.37 -6.93 918.24 0 980 0C1050 0 1050 0 1120 0C1148.76 0 1155.09 -14.4 1177.53 0C1225.09 30.53 1211.01 55.97 1260 89.85C1312.24 125.97 1377.81 99.84 1380 140C1382.99 194.91 1264.92 222.03 1270.37 280C1274.92 328.49 1342.86 307.9 1400 352.92C1431.7 377.9 1448.06 388.25 1448.06 420C1448.06 446.56 1425.04 445.81 1400 469.54C1351.18 515.81 1354.2 525.2 1300.34 560C1284.2 570.43 1280.17 560 1260 560C1190 560 1190 560 1120 560C1088.78 560 1057.57 573.57 1057.57 560C1057.57 540.09 1089.46 527.13 1120 493.04C1152.18 457.13 1157.73 460.65 1183 420C1223.94 354.13 1267.97 336.91 1252.43 280C1236.47 221.54 1177.44 189.26 1120 189.26C1080.98 189.26 1093.87 237.98 1059.51 280C1023.87 323.6 1018.16 360.5 980 360.5C944.51 360.5 947.64 318.85 912.21 280C877.64 242.11 876.48 243.13 840 207.02C805.76 173.13 770.77 178.58 770.77 140" stroke="rgba(255, 0, 0, 1)" stroke-width="2"></path><path d="M1540 55.42C1509.77 55.42 1448.28 14.93 1448.28 0C1448.28 -12.78 1511.41 -17.27 1540 0C1557.27 10.44 1555.63 55.42 1540 55.42" stroke="rgba(255, 0, 0, 1)" stroke-width="2"></path><path d="M1520 560C1520 554.42 1534.09 540.78 1540 540.78C1544.09 540.78 1544.9 555.29 1540 560C1534.9 564.9 1520 564.03 1520 560" stroke="rgba(201, 0, 255, 1)" stroke-width="2"></path><path d="M809.23 140C809.23 114.8 819.3 85.1 840 85.1C868.83 85.1 908.29 117.11 908.29 140C908.29 159.46 871.45 169.79 840 169.79C821.92 169.79 809.23 157.15 809.23 140" stroke="rgba(255, 0, 0, 1)" stroke-width="2"></path><path d="M980 68.29C942.5 56.05 925.1 20.99 925.1 0C925.1 -13.15 952.55 0 980 0C1050 0 1050 0 1120 0C1124.8 0 1129.59 -4.13 1129.59 0C1129.59 27.69 1143.55 52.89 1120 63.64C1068.75 87.04 1039.95 87.87 980 68.29" stroke="rgba(99, 0, 255, 1)" stroke-width="2"></path><path d="M244.36 280C244.36 263.1 258.84 254.88 280 253.15C346.66 247.7 351.44 254.6 420 265.64C434.77 268.02 446.67 267.7 446.67 280C446.67 312.21 450.02 343.97 420 354.67C366.68 373.67 338.87 364.42 280 339.39C251.05 327.08 244.36 306.22 244.36 280" stroke="rgba(0, 228, 255, 1)" stroke-width="2"></path><path d="M949.05 280C949.05 247.21 963.44 210 980 210C997.06 210 1016.3 247.75 1016.3 280C1016.3 301.13 997.42 316.75 980 316.75C963.8 316.75 949.05 300.58 949.05 280" stroke="rgba(201, 0, 255, 1)" stroke-width="2"></path><path d="M60.67 420C66.43 385.97 101.14 378.97 140 378.97C173.86 378.97 202.34 388.65 206.11 420C213.23 479.17 190.57 499.04 161.78 560C157.51 569.04 150.89 560 140 560C124.69 560 116.17 571.98 109.38 560C76.51 501.98 51.12 476.48 60.67 420" stroke="rgba(255, 0, 0, 1)" stroke-width="2"></path><path d="M518 420C518 407.46 543.05 421.68 560 408.65C634.05 351.68 648.68 276.79 700 280C739.42 282.47 741.48 360.21 741.48 420C741.48 438.21 721.33 429.83 700 436C630.59 456.08 622.13 477.96 560 472.5C531.13 469.96 518 439.38 518 420" stroke="rgba(0, 228, 255, 1)" stroke-width="2"></path><path d="M1226.75 420C1226.75 387.02 1233.17 356.67 1260 356.67C1313.13 356.67 1386.67 382.06 1386.67 420C1386.67 462.99 1308.52 518.52 1260 518.52C1228.56 518.52 1226.75 467.94 1226.75 420" stroke="rgba(255, 0, 0, 1)" stroke-width="2"></path><path d="M1104.86 560C1104.86 555.18 1109.95 543.77 1120 543.77C1152.52 543.77 1190 555.89 1190 560C1190 564 1155 560 1120 560C1112.43 560 1104.86 563.29 1104.86 560" stroke="rgba(201, 0, 255, 1)" stroke-width="2"></path></g><defs><mask id="SvgjsMask1707"><rect width="1440" height="560" fill="#ffffff"></rect></mask><linearGradient x1="15.28%" y1="-39.29%" x2="84.72%" y2="139.29%" gradientUnits="userSpaceOnUse" id="SvgjsLinearGradient1708"><stop stop-color="rgba(127, 0, 105, 1)" offset="0"></stop><stop stop-color="rgba(0, 109, 136, 1)" offset="1"></stop></linearGradient></defs></svg>