<svg xmlns="http://www.w3.org/2000/svg" version="1.1" xmlns:xlink="http://www.w3.org/1999/xlink" xmlns:svgjs="http://svgjs.dev/svgjs" width="1000" height="360" preserveAspectRatio="none" viewBox="0 0 1000 360"><g mask="url(&quot;#SvgjsMask7241&quot;)" fill="none"><rect width="1000" height="360" x="0" y="0" fill="url(&quot;#SvgjsLinearGradient7242&quot;)"></rect><use xlink:href="#SvgjsG7266" transform="translate(0, 0)" fill="rgba(244, 89, 255, 1)"></use><use xlink:href="#SvgjsG7266" transform="translate(429, 0)" fill="rgba(83, 255, 227, 1)"></use><use xlink:href="#SvgjsG7266" transform="translate(858, 0)" fill="rgba(244, 89, 255, 1)"></use></g><defs><mask id="SvgjsMask7241"><rect width="1000" height="360" fill="#ffffff"></rect></mask><linearGradient x1="84%" y1="144.44%" x2="16%" y2="-44.44%" gradientUnits="userSpaceOnUse" id="SvgjsLinearGradient7242"><stop stop-color="rgba(255, 0, 184, 1)" offset="0.34"></stop><stop stop-color="rgba(0, 111, 255, 1)" offset="0.65"></stop></linearGradient><g id="SvgjsG7243"><path d="M6.17 8.78L13.28 5.15l1 1.98-7.11 3.62z"></path><path d="M9.19 0.46l2.42 0.78-2.48 7.64L6.71 8.09z"></path><path d="M7.18 10.76L3.56 3.65l1.97-1L9.15 9.75zM-0.1 10.92l13.06 4.24-0.7 2.16L-0.8 13.07z"></path><path d="M0.74 6.84l2.15 0.7-1.98 6.09-2.15-0.7z m11.66 3.79l2.16 0.7-1.98 6.09-2.16-0.7z"></path></g><g id="SvgjsG7246"><path d="M14.44 11.6c0.28 0.09 0.62-0.05 0.74-0.32 0 0 0.18-0.37 0.33-0.84s0.22-0.87 0.23-0.87c0.05-0.29-0.14-0.6-0.42-0.69l-1.45-0.47c-0.28-0.09-0.51-0.36-0.52-0.61s0.12-0.98 0.39-1.11l1.35-0.7c0.26-0.13 0.39-0.47 0.28-0.74l-0.81-1.6c-0.16-0.25-0.5-0.34-0.77-0.21l-1.35 0.69c-0.26 0.13-0.62 0.11-0.8-0.06s-0.61-0.78-0.51-1.06L11.6 1.56c0.09-0.28-0.05-0.62-0.32-0.74 0 0-0.37-0.18-0.84-0.33s-0.87-0.22-0.87-0.23c-0.29-0.05-0.6 0.14-0.69 0.42l-0.48 1.45c-0.09 0.28-0.36 0.51-0.6 0.52s-0.98-0.12-1.12-0.39l-0.69-1.35C5.86 0.64 5.52 0.52 5.25 0.63l-1.6 0.81c-0.25 0.16-0.34 0.5-0.21 0.77l0.69 1.35c0.13 0.26 0.11 0.62-0.06 0.8s-0.78 0.61-1.06 0.52L1.56 4.4c-0.28-0.09-0.62 0.05-0.74 0.32 0 0-0.18 0.37-0.33 0.84s-0.22 0.87-0.23 0.87c-0.05 0.29 0.14 0.6 0.42 0.7l1.45 0.47c0.28 0.09 0.51 0.36 0.52 0.6 0 0.24-0.12 0.98-0.38 1.12l-1.36 0.69C0.64 10.14 0.52 10.48 0.63 10.75l0.81 1.6c0.16 0.25 0.5 0.34 0.77 0.21l1.35-0.69c0.26-0.13 0.62-0.11 0.8 0.06s0.61 0.78 0.52 1.06l-0.48 1.45c-0.09 0.28 0.05 0.62 0.32 0.74 0 0 0.37 0.18 0.84 0.33s0.87 0.22 0.87 0.23c0.29 0.05 0.6-0.14 0.7-0.42l0.47-1.45c0.09-0.28 0.36-0.51 0.61-0.52 0.24 0 0.98 0.12 1.11 0.39l0.69 1.36c0.13 0.26 0.47 0.39 0.74 0.27l1.6-0.81c0.25-0.16 0.34-0.5 0.21-0.76l-0.69-1.36c-0.13-0.26-0.11-0.62 0.06-0.79 0.17-0.17 0.78-0.61 1.06-0.52l1.45 0.47zM7.11 10.75c-1.52-0.49-2.35-2.12-1.86-3.64 0.49-1.52 2.12-2.35 3.64-1.86S11.24 7.38 10.75 8.89 8.63 11.24 7.11 10.75z"></path></g><g id="SvgjsG7265"><path d="M13.79 16.05l-2.75-5.41c2.17-1.88 2.8-4.98 1.54-7.55-1.26-2.58-4.1-3.97-6.92-3.4C2.85 0.25 0.78 2.65 0.62 5.51c-0.16 2.86 1.63 5.48 4.35 6.36 1.09 0.36 2.27 0.4 3.39 0.14l2.75 5.41 2.68-1.37zM3.21 4.67c0.67-2.05 2.87-3.17 4.91-2.51 2.05 0.67 3.17 2.87 2.51 4.92-0.67 2.05-2.87 3.17-4.92 2.51-2.05-0.67-3.17-2.87-2.5-4.92z" fill-rule="evenodd"></path><path d="M5.17 4.9l3.72 1.2-0.3 0.92L4.87 5.81l0.3-0.91z" fill-rule="evenodd"></path></g><g id="SvgjsG7260"><path d="M13.79 16.05l-2.75-5.41c2.17-1.88 2.8-4.98 1.54-7.55-1.26-2.58-4.1-3.97-6.92-3.4C2.85 0.25 0.78 2.65 0.62 5.51c-0.16 2.86 1.63 5.48 4.35 6.36 1.09 0.36 2.27 0.4 3.39 0.14l2.75 5.41 2.68-1.37zM3.21 4.67c0.67-2.05 2.87-3.17 4.91-2.51 2.05 0.67 3.17 2.87 2.51 4.92-0.67 2.05-2.87 3.17-4.92 2.51-2.05-0.67-3.17-2.87-2.5-4.92z" fill-rule="evenodd"></path><path d="M5.17 4.9l3.72 1.2-0.3 0.92L4.87 5.81l0.3-0.91z" fill-rule="evenodd"></path><path d="M7.02 3.95l0.92 0.3-1.21 3.72-0.91-0.3L7.02 3.95z" fill-rule="evenodd"></path></g><g id="SvgjsG7264"><path d="M13.69 7.2L2.97 14.73l4-6.44-4.04-1.24L12.12 0.93 8.47 5.51l5.22 1.69z" fill-rule="evenodd"></path></g><g id="SvgjsG7251"><path d="M-1.5 11.44L10.35 0.77l3.31 15.59z"></path></g><g id="SvgjsG7247"><path d="M9.81 2.42l-3.62 11.16c-3.08-1-4.77-4.31-3.77-7.39 1-3.08 4.31-4.76 7.39-3.77m0.46-1.39c-3.85-1.25-7.99 0.86-9.24 4.7s0.86 7.99 4.7 9.25 7.99-0.86 9.24-4.71-0.86-7.99-4.7-9.24z"></path></g><g id="SvgjsG7256"><path d="M6.5 4.64L10.48 0.39l0.72 5.78 5.01 2.52-5.08 2.66-0.89 5.8L6.38 13.02 0.83 14.1l2.68-5.22L0.97 3.74z"></path></g><g id="SvgjsG7252"><path d="M-1.2 10.43l2.77 0.9L2.49 8.51l2.75 0.89L6.16 6.56l2.8 0.91L9.86 4.69l2.78 0.9L13.54 2.82 17.66 4.16l-0.46 1.41L14.46 4.68l-0.9 2.78-2.78-0.9-0.91 2.82-2.78-0.91L6.18 11.27l-2.79-0.9-0.92 2.83L-1.66 11.85z"></path></g><g id="SvgjsG7245"><path d="M0.86 5.51c-1.29 3.96 0.88 8.21 4.83 9.49 3.96 1.29 8.21-0.88 9.5-4.84 0.67-2.06 0.4-4.2-0.57-5.96L12.16 5.55c0.61 1.11 0.78 2.45 0.36 3.75-0.81 2.48-3.48 3.85-5.96 3.04-2.48-0.81-3.85-3.48-3.04-5.97"></path><path d="M12.52 9.3c-0.81 2.48-3.48 3.85-5.96 3.04-2.48-0.81-3.85-3.48-3.04-5.97 0.42-1.29 1.35-2.28 2.49-2.82l-1.19-2.53C3 1.87 1.53 3.44 0.86 5.51c-1.29 3.96 0.88 8.21 4.83 9.49 3.96 1.29 8.21-0.88 9.5-4.84"></path><path d="M9.18-0.03L11.71 0.79l-2.54 7.81L6.64 7.78z"></path></g><g id="SvgjsG7258"><path d="M5.81 14.32a9.98 9.98 0 0 0 0.35-7.1A9.99 9.99 0 0 0 1.71 1.67 9.97 9.97 0 0 0 1.36 8.77a9.98 9.98 0 0 0 4.45 5.55z m1.39-7.44a11.29 11.29 0 0 1 0.44 1.9 11.33 11.33 0 0 1 1.46-1.28 11.1 11.1 0 0 1 1.92-1.12A9.97 9.97 0 0 0 10.39 0.36a9.98 9.98 0 0 0-4.05 4.54 11.23 11.23 0 0 1 0.86 1.98z m9.41-0.37a9.99 9.99 0 0 0-6.86 1.88 10.06 10.06 0 0 0-2.02 1.95 11.07 11.07 0 0 1-0.77 4.04 9.97 9.97 0 0 0 5.76-1.91A9.97 9.97 0 0 0 16.61 6.51z" fill-rule="evenodd"></path></g><g id="SvgjsG7263"><path d="M9.51 3.35c1.24 0.4 2.25 1.27 2.85 2.43C12.95 6.94 13.06 8.27 12.65 9.51s-1.27 2.25-2.43 2.85c-1.16 0.59-2.49 0.7-3.73 0.29s-2.25-1.27-2.85-2.43C3.05 9.06 2.94 7.73 3.35 6.49s1.27-2.25 2.43-2.85c1.16-0.59 2.49-0.7 3.73-0.29m0.83-2.54c-1.84-0.6-3.91-0.49-5.77 0.45-3.72 1.89-5.2 6.45-3.31 10.17 0.95 1.86 2.56 3.16 4.4 3.76s3.91 0.49 5.77-0.45c3.72-1.9 5.2-6.45 3.31-10.17C13.79 2.71 12.18 1.41 10.34 0.81z"></path><path d="M3.81 2.86l2.49-1.27 5.86 11.49-2.5 1.27z"></path></g><g id="SvgjsG7250"><path d="M6.28 0.65l6.65 13.06L9.72 15.35 3.06 2.29 6.28 0.65z" fill-rule="evenodd"></path><path d="M13.71 3.06L15.35 6.29 2.29 12.94 0.65 9.72 13.71 3.07z" fill-rule="evenodd"></path></g><g><path d="M5.93-1.06l6.35 11.46-4.53-1.05 0.71 6.35-1.92 0.22-0.6-6.41-4.08 1.95L5.93-1.06"></path></g><g id="SvgjsG7253"><path d="M5.52 15.61l0 0c-2.03-0.66-3.68-2.07-4.65-3.98C-0.1 9.72-0.27 7.55 0.39 5.52 1.05 3.49 2.46 1.84 4.36 0.87 6.27-0.1 8.43-0.27 10.46 0.39l0.01 0C12.5 1.05 14.16 2.46 15.13 4.37c0.97 1.9 1.14 4.07 0.48 6.1-0.66 2.03-2.08 3.69-3.98 4.66-1.9 0.97-4.07 1.14-6.11 0.48z m4.37-13.47c-1.56-0.51-3.23-0.38-4.69 0.37-1.46 0.75-2.55 2.02-3.06 3.58-0.51 1.57-0.38 3.24 0.37 4.7 0.75 1.47 2.02 2.55 3.58 3.07 3.23 1.05 6.72-0.73 7.77-3.96 1.05-3.23-0.73-6.71-3.95-7.76l-0.01 0z"></path><path d="M8.92 7.4L9.48 5.69c0.47 0.19 0.7 0.8 0.58 1.31l1.61 0.52c0.54-1.66-0.68-3.02-1.7-3.41l0.37-1.12L8.8 2.49l-0.37 1.12c-0.45-0.14-2.68-0.23-3.28 1.62-0.54 1.65 0.79 2.58 1.77 3.05l-0.61 1.87c-0.68-0.45-0.63-1.07-0.58-1.58l-1.63-0.53c-0.5 1.89 0.85 3.28 1.69 3.7l-0.37 1.14 1.56 0.5 0.36-1.12c1.25 0.33 3.06-0.26 3.53-1.71 0.54-1.67-0.76-2.62-1.95-3.15zM7.46 6.62c-1.09-0.37-0.72-1.58 0.46-1.41l-0.46 1.41z m0.42 4.05L8.4 9.06c1.35 0.48 1.06 1.88-0.52 1.61z"></path></g><g id="SvgjsG7248"><path d="M2.64 10.05l3.84 1.24c0.31 0.29 2.82 3.63 3.25 4.18l0.93-2.84-0.02-0.01a2.76 2.76 0 0 0 3.15-1.86L15.57 5.3c0.47-1.45-0.32-3.01-1.78-3.49L6.13-0.68c-1.46-0.47-3.01 0.32-3.49 1.78l-1.77 5.46c-0.47 1.45 0.32 3.01 1.77 3.49z" fill-rule="evenodd"></path></g><g id="SvgjsG7257"><path d="M9.85 2.31C5.87 1.02 1.85 2.4 0.88 5.4c-0.48 1.47-0.14 3.05 0.8 4.44l-1.06 3.26 4.33-0.48c0.43 0.22 0.89 0.41 1.37 0.56 3.98 1.29 8-0.09 8.97-3.09 0.97-3-1.46-6.48-5.44-7.77zM4.68 7.9a1.07 1.07 0 1 1 0.66-2.03 1.07 1.07 0 0 1-0.66 2.03z m3.03 0.99a1.07 1.07 0 1 1 0.66-2.03 1.07 1.07 0 0 1-0.66 2.03z m2.99 0.97c-0.56-0.18-0.87-0.78-0.69-1.35s0.78-0.87 1.35-0.68 0.87 0.78 0.68 1.34a1.07 1.07 0 0 1-1.34 0.69z"></path></g><g><path d="M10.14 1.41C5.95 0.05 1.72 1.51 0.7 4.67c-0.5 1.55-0.14 3.21 0.84 4.67l-1.11 3.43 4.55-0.51c0.46 0.23 0.94 0.43 1.44 0.59 4.19 1.36 8.42-0.1 9.45-3.25C16.89 6.44 14.33 2.78 10.14 1.41z" fill-rule="evenodd"></path></g><g id="SvgjsG7259"><path d="M1.92 9.59L1.91 9.59l-0.78 2.39c0.66-0.19 4.15-1.07 4.57-1.13l4.21 1.36c1.45 0.47 3.01-0.32 3.49-1.77L15.17 4.97A2.77 2.77 0 0 0 13.4 1.49l-7.68-2.49c-1.45-0.47-3.01 0.32-3.48 1.78l-1.78 5.46a2.77 2.77 0 0 0 1.46 3.36z" fill-rule="evenodd"></path></g><g id="SvgjsG7244"><path d="M14.7 7.53L3.98 15.06l4-6.44-4.03-1.24L8.26-0.33l4.88 1.59L9.48 5.84z"></path></g><g id="SvgjsG7262"><path d="M8.55-0.23l3.84 1.25-3.38 10.4L5.17 10.17z m-3.95 12.15l3.84 1.25L7.45 16.23 3.61 14.98z"></path></g><g id="SvgjsG7255"><path d="M0.92 6.48c0.03-0.08 0.1-0.14 0.23-0.18l0.36-0.11c0.14-0.04 0.22-0.12 0.25-0.22 0.03-0.1 0.01-0.22-0.07-0.32l-0.23-0.3c-0.08-0.1-0.1-0.2-0.08-0.28 0.03-0.09 0.12-0.15 0.27-0.16l0.38-0.03c0.17-0.01 0.28-0.1 0.32-0.21 0.03-0.08 0.02-0.18-0.04-0.28L2.15 4.05c-0.05-0.1-0.06-0.18-0.04-0.25 0.03-0.11 0.15-0.16 0.32-0.14l0.38 0.05c0.19 0.03 0.34-0.06 0.38-0.2 0.02-0.06 0.02-0.14 0-0.23l-0.09-0.36c-0.02-0.08-0.02-0.15 0-0.21 0.04-0.13 0.18-0.18 0.36-0.12l0.35 0.13c0.21 0.08 0.39 0 0.45-0.18 0.01-0.05 0.02-0.1 0.02-0.15l-0.02-0.38a0.45 0.45 0 0 1 0.02-0.15c0.05-0.16 0.21-0.21 0.4-0.09l0.32 0.2c0.22 0.14 0.43 0.06 0.51-0.17 0.01-0.02 0.01-0.04 0.02-0.07l0.06-0.37a0.54 0.54 0 0 1 0.02-0.07c0.07-0.22 0.26-0.25 0.44-0.08l0.27 0.26c0.2 0.2 0.46 0.14 0.56-0.11l0.14-0.35c0.11-0.26 0.32-0.28 0.48-0.05l0.21 0.31c0.16 0.23 0.42 0.23 0.58 0l0.21-0.31c0.16-0.23 0.37-0.21 0.48 0.05l0.14 0.35c0.11 0.26 0.36 0.32 0.56 0.11l0.27-0.26c0.2-0.19 0.41-0.13 0.46 0.15l0.07 0.37c0.05 0.28 0.28 0.38 0.52 0.24l0.32-0.2c0.24-0.15 0.43-0.04 0.42 0.24l-0.01 0.38c-0.01 0.28 0.2 0.43 0.46 0.33l0.35-0.13c0.26-0.1 0.43 0.05 0.36 0.33l-0.09 0.36c-0.07 0.27 0.1 0.46 0.39 0.43l0.37-0.05c0.25-0.04 0.38 0.11 0.31 0.32-0.01 0.02-0.02 0.04-0.03 0.07l-0.16 0.34a0.5 0.5 0 0 0-0.03 0.06c-0.07 0.23 0.06 0.41 0.31 0.43l0.38 0.03c0.22 0.02 0.32 0.14 0.27 0.3-0.01 0.04-0.04 0.09-0.07 0.14l-0.24 0.3a0.44 0.44 0 0 0-0.07 0.13c-0.06 0.18 0.04 0.35 0.25 0.41l0.36 0.11c0.19 0.05 0.27 0.17 0.23 0.3-0.02 0.06-0.06 0.11-0.13 0.17l-0.28 0.24c-0.07 0.06-0.11 0.12-0.13 0.18-0.05 0.14 0.02 0.3 0.19 0.39l0.33 0.18c0.15 0.08 0.21 0.19 0.18 0.3-0.02 0.07-0.08 0.13-0.18 0.18L14.73 8.42c-0.1 0.05-0.17 0.13-0.2 0.21-0.04 0.12 0 0.25 0.13 0.36l0.29 0.24c0.12 0.1 0.16 0.2 0.13 0.29-0.03 0.08-0.1 0.14-0.23 0.18l-0.36 0.11c-0.14 0.04-0.22 0.12-0.25 0.21-0.03 0.1-0.01 0.22 0.07 0.33l0.24 0.3c0.08 0.1 0.1 0.2 0.07 0.28-0.03 0.09-0.12 0.15-0.27 0.16l-0.38 0.02c-0.17 0.01-0.28 0.1-0.32 0.22-0.03 0.08-0.02 0.18 0.04 0.28l0.16 0.34c0.05 0.1 0.06 0.18 0.04 0.25-0.03 0.11-0.15 0.16-0.32 0.14l-0.37-0.05c-0.19-0.03-0.33 0.06-0.39 0.2-0.02 0.06-0.02 0.14 0 0.23l0.09 0.36c0.02 0.08 0.02 0.15 0 0.21-0.04 0.13-0.18 0.18-0.36 0.11l-0.35-0.13c-0.21-0.08-0.39 0-0.44 0.19-0.01 0.05-0.02 0.1-0.02 0.15l0.01 0.38a0.45 0.45 0 0 1-0.02 0.15c-0.05 0.16-0.21 0.21-0.4 0.09l-0.32-0.2c-0.22-0.14-0.43-0.06-0.51 0.17-0.01 0.02-0.01 0.04-0.01 0.06l-0.07 0.37c0 0.03-0.01 0.05-0.02 0.08-0.07 0.21-0.26 0.25-0.44 0.07l-0.27-0.26c-0.2-0.2-0.46-0.14-0.56 0.12l-0.14 0.35c-0.11 0.26-0.32 0.28-0.48 0.05l-0.21-0.31c-0.16-0.23-0.42-0.23-0.58 0l-0.21 0.31c-0.16 0.23-0.37 0.21-0.48-0.05l-0.14-0.35c-0.11-0.26-0.36-0.31-0.56-0.12l-0.27 0.26c-0.2 0.2-0.41 0.13-0.46-0.14l-0.06-0.38c-0.05-0.28-0.28-0.38-0.53-0.23l-0.32 0.2c-0.24 0.15-0.43 0.04-0.42-0.24l0.02-0.38c0.01-0.28-0.2-0.43-0.47-0.33l-0.35 0.12c-0.26 0.1-0.43-0.05-0.36-0.32l0.09-0.36c0.07-0.27-0.1-0.47-0.38-0.43l-0.38 0.05c-0.25 0.04-0.38-0.11-0.31-0.32 0.01-0.02 0.02-0.05 0.03-0.07l0.17-0.34c0.01-0.02 0.02-0.04 0.02-0.06 0.07-0.23-0.06-0.41-0.31-0.43l-0.38-0.03c-0.22-0.02-0.32-0.14-0.27-0.31 0.01-0.04 0.04-0.09 0.08-0.13l0.23-0.3c0.04-0.05 0.06-0.09 0.07-0.14 0.06-0.18-0.04-0.35-0.25-0.4l-0.36-0.11c-0.19-0.05-0.27-0.17-0.23-0.3 0.02-0.06 0.06-0.11 0.13-0.17l0.29-0.24c0.07-0.06 0.11-0.12 0.13-0.19 0.05-0.14-0.02-0.3-0.19-0.38L0.94 8.24c-0.15-0.08-0.21-0.19-0.17-0.3 0.02-0.07 0.08-0.13 0.17-0.18l0.34-0.18c0.1-0.05 0.17-0.13 0.19-0.21 0.04-0.12 0-0.25-0.13-0.36l-0.29-0.24c-0.12-0.1-0.16-0.2-0.13-0.3z"></path></g><g id="SvgjsG7249"><path d="M11.34 14.01L14.68 3.73 11.75 2.78 12.32 1.07C12.31 1.07 6.03 1.74 6.03 1.74 5 1.87 4.48 2.39 4.21 3.23L1.52 11.52c-0.43 1.32 0.28 2.75 1.5 3.14l7.36 2.39L10.87 15.53c-0.87-0.4-0.45-1.69 0.47-1.52z m-7.81-1.04c-0.8-0.27-0.43-1.4 0.37-1.14l5.13 1.67c-0.44 0.15-0.62 0.78-0.32 1.16L3.53 12.97z m6.61-0.88L5.65 10.63l3.69-0.41L11.21 4.45l1.28 0.41-2.34 7.23-0.01 0z" fill-rule="evenodd"></path></g><g id="SvgjsG7261"><path d="M6.04 12.25S5.51 10.47 2.97 9.65C0.64 8.89-0.79 9.17-0.79 9.17L2.27-0.24s1.43-0.28 3.76 0.46C8.58 1.03 9.1 2.84 9.1 2.84L6.04 12.25z m1.03 0.34s1.47-1.13 4.02-0.3c2.33 0.76 3.32 1.83 3.32 1.82L17.47 4.7s-0.99-1.07-3.32-1.84c-2.54-0.84-4.02 0.32-4.02 0.32l-3.06 9.41z"></path><path d="M5.62 15.36S4.81 12.65 2.26 11.83c-2.33-0.76-3.76-0.47-3.76-0.48l0.37-1.13s1.43-0.28 3.76 0.46c2.55 0.81 3.35 3.55 3.36 3.55L5.62 15.36z m0 0s2.25-1.71 4.8-0.89c2.33 0.76 3.32 1.83 3.32 1.83l0.37-1.13s-0.99-1.07-3.32-1.84c-2.54-0.84-4.8 0.9-4.8 0.9l-0.37 1.13z"></path></g><g id="SvgjsG7254"><path d="M9.63 15.84l-0.23-0.08c-0.08-0.2-0.07-0.41 0.05-0.63 0.2-0.37 0.58-0.6 0.72-0.61l0 0a0.53 0.53 0 0 0 0.48-0.36l3.34-10.25c0.09-0.27-0.06-0.57-0.33-0.66 0 0-2.05-0.67-2.61-0.85l0.38-1.15c0.07-0.2 0.01-0.42-0.16-0.56a0.52 0.52 0 0 0-0.57-0.07L6.15 2.96C5.35 3.37 4.51 4.35 4.22 5.22L1.87 12.38c-0.33 1 0.21 2.08 1.2 2.41l6.24 2.05c0.27 0.09 0.57-0.06 0.65-0.34l0 0c0.09-0.28-0.06-0.57-0.33-0.66M12.84 4.09c-0.28 0.85-2.74 8.39-3.01 9.25l-5.63-1.83 4.49-1.84 2.04-6.27c0.32 0.11 1.82 0.6 2.11 0.69M2.85 12.7s0.14-0.41 0.16-0.47L8.9 14.14c-0.14 0.15-0.27 0.32-0.37 0.5-0.13 0.25-0.19 0.51-0.21 0.77l-4.92-1.62c-0.45-0.15-0.7-0.64-0.55-1.09"></path></g><g id="SvgjsG7266"><use xlink:href="#SvgjsG7243" transform="translate(0, 0) scale(1.3)" fill="rgba(255, 0, 0, 1)"></use><use xlink:href="#SvgjsG7244" transform="translate(0, 42.9) scale(1.3)" fill="rgba(0, 21, 255, 1)"></use><use xlink:href="#SvgjsG7245" transform="translate(0, 85.8) scale(1.3)" fill="rgba(221, 255, 0, 1)"></use><use xlink:href="#SvgjsG7246" transform="translate(0, 128.7) scale(1.3)" fill="rgba(255, 255, 255, 1)"></use><use xlink:href="#SvgjsG7247" transform="translate(0, 171.6) scale(1.3)" fill="rgba(0, 21, 255, 1)"></use><use xlink:href="#SvgjsG7248" transform="translate(0, 214.5) scale(1.3)" fill="rgba(89, 102, 255, 1)"></use><use xlink:href="#SvgjsG7249" transform="translate(0, 257.4) scale(1.3)" fill="rgba(255, 0, 0, 1)"></use><use xlink:href="#SvgjsG7250" transform="translate(0, 300.3) scale(1.3)" fill="rgba(255, 145, 61, 1)"></use><use xlink:href="#SvgjsG7251" transform="translate(0, 343.2) scale(1.3)" fill="rgba(255, 145, 61, 1)"></use><use xlink:href="#SvgjsG7250" transform="translate(42.9, 0) scale(1.3)" fill="rgba(255, 145, 61, 1)"></use><use xlink:href="#SvgjsG7250" transform="translate(42.9, 42.9) scale(1.3)" fill="rgba(255, 145, 61, 1)"></use><use xlink:href="#SvgjsG7252" transform="translate(42.9, 85.8) scale(1.3)" fill="rgba(244, 89, 255, 1)"></use><use xlink:href="#SvgjsG7253" transform="translate(42.9, 128.7) scale(1.3)" fill="rgba(83, 255, 227, 1)"></use><use xlink:href="#SvgjsG7254" transform="translate(42.9, 171.6) scale(1.3)" fill="rgba(255, 145, 61, 1)"></use><use xlink:href="#SvgjsG7247" transform="translate(42.9, 214.5) scale(1.3)" fill="rgba(130, 0, 255, 1)"></use><use xlink:href="#SvgjsG7251" transform="translate(42.9, 257.4) scale(1.3)" fill="rgba(0, 21, 255, 1)"></use><use xlink:href="#SvgjsG7253" transform="translate(42.9, 300.3) scale(1.3)" fill="rgba(244, 89, 255, 1)"></use><use xlink:href="#SvgjsG7255" transform="translate(42.9, 343.2) scale(1.3)" fill="rgba(0, 21, 255, 1)"></use><use xlink:href="#SvgjsG7249" transform="translate(85.8, 0) scale(1.3)" fill="rgba(61, 224, 255, 1)"></use><use xlink:href="#SvgjsG7252" transform="translate(85.8, 42.9) scale(1.3)" fill="rgba(221, 255, 0, 1)"></use><use xlink:href="#SvgjsG7244" transform="translate(85.8, 85.8) scale(1.3)" fill="rgba(130, 0, 255, 1)"></use><use xlink:href="#SvgjsG7256" transform="translate(85.8, 128.7) scale(1.3)" fill="rgba(255, 145, 61, 1)"></use><use xlink:href="#SvgjsG7257" transform="translate(85.8, 171.6) scale(1.3)" fill="rgba(255, 0, 0, 1)"></use><use xlink:href="#SvgjsG7252" transform="translate(85.8, 214.5) scale(1.3)" fill="rgba(0, 21, 255, 1)"></use><use xlink:href="#SvgjsG7258" transform="translate(85.8, 257.4) scale(1.3)" fill="rgba(0, 21, 255, 1)"></use><use xlink:href="#SvgjsG7245" transform="translate(85.8, 300.3) scale(1.3)" fill="rgba(89, 102, 255, 1)"></use><use xlink:href="#SvgjsG7250" transform="translate(85.8, 343.2) scale(1.3)" fill="rgba(221, 255, 0, 1)"></use><use xlink:href="#SvgjsG7257" transform="translate(128.7, 0) scale(1.3)" fill="rgba(89, 102, 255, 1)"></use><use xlink:href="#SvgjsG7259" transform="translate(128.7, 42.9) scale(1.3)" fill="rgba(61, 224, 255, 1)"></use><use xlink:href="#SvgjsG7260" transform="translate(128.7, 85.8) scale(1.3)" fill="rgba(83, 255, 227, 1)"></use><use xlink:href="#SvgjsG7252" transform="translate(128.7, 128.7) scale(1.3)" fill="rgba(221, 255, 0, 1)"></use><use xlink:href="#SvgjsG7247" transform="translate(128.7, 171.6) scale(1.3)" fill="rgba(255, 145, 61, 1)"></use><use xlink:href="#SvgjsG7252" transform="translate(128.7, 214.5) scale(1.3)" fill="rgba(255, 0, 0, 1)"></use><use xlink:href="#SvgjsG7255" transform="translate(128.7, 257.4) scale(1.3)" fill="rgba(255, 255, 255, 1)"></use><use xlink:href="#SvgjsG7248" transform="translate(128.7, 300.3) scale(1.3)" fill="rgba(255, 0, 0, 1)"></use><use xlink:href="#SvgjsG7261" transform="translate(128.7, 343.2) scale(1.3)" fill="rgba(255, 0, 0, 1)"></use><use xlink:href="#SvgjsG7248" transform="translate(171.6, 0) scale(1.3)" fill="rgba(255, 145, 61, 1)"></use><use xlink:href="#SvgjsG7261" transform="translate(171.6, 42.9) scale(1.3)" fill="rgba(83, 255, 227, 1)"></use><use xlink:href="#SvgjsG7262" transform="translate(171.6, 85.8) scale(1.3)" fill="rgba(89, 102, 255, 1)"></use><use xlink:href="#SvgjsG7263" transform="translate(171.6, 128.7) scale(1.3)" fill="rgba(89, 102, 255, 1)"></use><use xlink:href="#SvgjsG7259" transform="translate(171.6, 171.6) scale(1.3)" fill="rgba(255, 255, 255, 1)"></use><use xlink:href="#SvgjsG7264" transform="translate(171.6, 214.5) scale(1.3)" fill="rgba(89, 102, 255, 1)"></use><use xlink:href="#SvgjsG7262" transform="translate(171.6, 257.4) scale(1.3)" fill="rgba(244, 89, 255, 1)"></use><use xlink:href="#SvgjsG7249" transform="translate(171.6, 300.3) scale(1.3)" fill="rgba(89, 102, 255, 1)"></use><use xlink:href="#SvgjsG7252" transform="translate(171.6, 343.2) scale(1.3)" fill="rgba(130, 0, 255, 1)"></use><use xlink:href="#SvgjsG7258" transform="translate(214.5, 0) scale(1.3)" fill="rgba(221, 255, 0, 1)"></use><use xlink:href="#SvgjsG7255" transform="translate(214.5, 42.9) scale(1.3)" fill="rgba(221, 255, 0, 1)"></use><use xlink:href="#SvgjsG7257" transform="translate(214.5, 85.8) scale(1.3)" fill="rgba(255, 145, 61, 1)"></use><use xlink:href="#SvgjsG7251" transform="translate(214.5, 128.7) scale(1.3)" fill="rgba(255, 255, 255, 1)"></use><use xlink:href="#SvgjsG7251" transform="translate(214.5, 171.6) scale(1.3)" fill="rgba(255, 0, 0, 1)"></use><use xlink:href="#SvgjsG7244" transform="translate(214.5, 214.5) scale(1.3)" fill="rgba(221, 255, 0, 1)"></use><use xlink:href="#SvgjsG7258" transform="translate(214.5, 257.4) scale(1.3)" fill="rgba(244, 89, 255, 1)"></use><use xlink:href="#SvgjsG7264" transform="translate(214.5, 300.3) scale(1.3)" fill="rgba(130, 0, 255, 1)"></use><use xlink:href="#SvgjsG7251" transform="translate(214.5, 343.2) scale(1.3)" fill="rgba(244, 89, 255, 1)"></use><use xlink:href="#SvgjsG7244" transform="translate(257.4, 0) scale(1.3)" fill="rgba(83, 255, 227, 1)"></use><use xlink:href="#SvgjsG7245" transform="translate(257.4, 42.9) scale(1.3)" fill="rgba(89, 102, 255, 1)"></use><use xlink:href="#SvgjsG7249" transform="translate(257.4, 85.8) scale(1.3)" fill="rgba(61, 224, 255, 1)"></use><use xlink:href="#SvgjsG7244" transform="translate(257.4, 128.7) scale(1.3)" fill="rgba(61, 224, 255, 1)"></use><use xlink:href="#SvgjsG7257" transform="translate(257.4, 171.6) scale(1.3)" fill="rgba(83, 255, 227, 1)"></use><use xlink:href="#SvgjsG7264" transform="translate(257.4, 214.5) scale(1.3)" fill="rgba(89, 102, 255, 1)"></use><use xlink:href="#SvgjsG7250" transform="translate(257.4, 257.4) scale(1.3)" fill="rgba(89, 102, 255, 1)"></use><use xlink:href="#SvgjsG7249" transform="translate(257.4, 300.3) scale(1.3)" fill="rgba(255, 255, 255, 1)"></use><use xlink:href="#SvgjsG7259" transform="translate(257.4, 343.2) scale(1.3)" fill="rgba(221, 255, 0, 1)"></use><use xlink:href="#SvgjsG7261" transform="translate(300.3, 0) scale(1.3)" fill="rgba(89, 102, 255, 1)"></use><use xlink:href="#SvgjsG7258" transform="translate(300.3, 42.9) scale(1.3)" fill="rgba(255, 0, 0, 1)"></use><use xlink:href="#SvgjsG7246" transform="translate(300.3, 85.8) scale(1.3)" fill="rgba(255, 255, 255, 1)"></use><use xlink:href="#SvgjsG7253" transform="translate(300.3, 128.7) scale(1.3)" fill="rgba(83, 255, 227, 1)"></use><use xlink:href="#SvgjsG7265" transform="translate(300.3, 171.6) scale(1.3)" fill="rgba(89, 102, 255, 1)"></use><use xlink:href="#SvgjsG7255" transform="translate(300.3, 214.5) scale(1.3)" fill="rgba(0, 21, 255, 1)"></use><use xlink:href="#SvgjsG7252" transform="translate(300.3, 257.4) scale(1.3)" fill="rgba(89, 102, 255, 1)"></use><use xlink:href="#SvgjsG7247" transform="translate(300.3, 300.3) scale(1.3)" fill="rgba(255, 255, 255, 1)"></use><use xlink:href="#SvgjsG7257" transform="translate(300.3, 343.2) scale(1.3)" fill="rgba(0, 21, 255, 1)"></use><use xlink:href="#SvgjsG7254" transform="translate(343.2, 0) scale(1.3)" fill="rgba(255, 0, 0, 1)"></use><use xlink:href="#SvgjsG7257" transform="translate(343.2, 42.9) scale(1.3)" fill="rgba(89, 102, 255, 1)"></use><use xlink:href="#SvgjsG7257" transform="translate(343.2, 85.8) scale(1.3)" fill="rgba(61, 224, 255, 1)"></use><use xlink:href="#SvgjsG7244" transform="translate(343.2, 128.7) scale(1.3)" fill="rgba(130, 0, 255, 1)"></use><use xlink:href="#SvgjsG7248" transform="translate(343.2, 171.6) scale(1.3)" fill="rgba(130, 0, 255, 1)"></use><use xlink:href="#SvgjsG7244" transform="translate(343.2, 214.5) scale(1.3)" fill="rgba(89, 102, 255, 1)"></use><use xlink:href="#SvgjsG7265" transform="translate(343.2, 257.4) scale(1.3)" fill="rgba(255, 145, 61, 1)"></use><use xlink:href="#SvgjsG7255" transform="translate(343.2, 300.3) scale(1.3)" fill="rgba(89, 102, 255, 1)"></use><use xlink:href="#SvgjsG7248" transform="translate(343.2, 343.2) scale(1.3)" fill="rgba(0, 21, 255, 1)"></use><use xlink:href="#SvgjsG7245" transform="translate(386.09999999999997, 0) scale(1.3)" fill="rgba(0, 21, 255, 1)"></use><use xlink:href="#SvgjsG7247" transform="translate(386.09999999999997, 42.9) scale(1.3)" fill="rgba(83, 255, 227, 1)"></use><use xlink:href="#SvgjsG7263" transform="translate(386.09999999999997, 85.8) scale(1.3)" fill="rgba(255, 0, 0, 1)"></use><use xlink:href="#SvgjsG7246" transform="translate(386.09999999999997, 128.7) scale(1.3)" fill="rgba(0, 21, 255, 1)"></use><use xlink:href="#SvgjsG7246" transform="translate(386.09999999999997, 171.6) scale(1.3)" fill="rgba(255, 145, 61, 1)"></use><use xlink:href="#SvgjsG7246" transform="translate(386.09999999999997, 214.5) scale(1.3)" fill="rgba(89, 102, 255, 1)"></use><use xlink:href="#SvgjsG7256" transform="translate(386.09999999999997, 257.4) scale(1.3)" fill="rgba(255, 145, 61, 1)"></use><use xlink:href="#SvgjsG7245" transform="translate(386.09999999999997, 300.3) scale(1.3)" fill="rgba(89, 102, 255, 1)"></use><use xlink:href="#SvgjsG7261" transform="translate(386.09999999999997, 343.2) scale(1.3)" fill="rgba(61, 224, 255, 1)"></use></g></defs></svg>