<svg xmlns="http://www.w3.org/2000/svg" version="1.1" xmlns:xlink="http://www.w3.org/1999/xlink" xmlns:svgjs="http://svgjs.dev/svgjs" width="1000" height="360" preserveAspectRatio="none" viewBox="0 0 1000 360"><g mask="url(&quot;#SvgjsMask5302&quot;)" fill="none"><rect width="1000" height="360" x="0" y="0" fill="url(&quot;#SvgjsLinearGradient5303&quot;)"></rect><path d="M-93.12 285.03L-93.12 285.03" stroke="rgba(248, 255, 0, 1)" stroke-width="1.5"></path><path d="M-93.12 285.03L-41.25 422.77" stroke="rgba(248, 255, 0, 1)" stroke-width="1.5"></path><path d="M-93.12 285.03L77.63 333.54" stroke="rgba(248, 255, 0, 1)" stroke-width="1.5"></path><path d="M-93.12 285.03L91.57 439.73" stroke="rgba(248, 255, 0, 1)" stroke-width="1.5"></path><path d="M-41.25 422.77L-41.25 422.77" stroke="rgba(248, 255, 0, 1)" stroke-width="1.5"></path><path d="M-41.25 422.77L91.57 439.73" stroke="rgba(248, 255, 0, 1)" stroke-width="1.5"></path><path d="M-41.25 422.77L77.63 333.54" stroke="rgba(248, 255, 0, 1)" stroke-width="1.5"></path><path d="M77.63 333.54L77.63 333.54" stroke="rgba(248, 255, 0, 1)" stroke-width="1.5"></path><path d="M77.63 333.54L174.74 310.69" stroke="rgba(248, 255, 0, 1)" stroke-width="1.5"></path><path d="M77.63 333.54L91.57 439.73" stroke="rgba(248, 255, 0, 1)" stroke-width="1.5"></path><path d="M91.57 439.73L91.57 439.73" stroke="rgba(248, 255, 0, 1)" stroke-width="1.5"></path><path d="M91.57 439.73L165.64 452.5" stroke="rgba(248, 255, 0, 1)" stroke-width="1.5"></path><path d="M91.57 439.73L174.74 310.69" stroke="rgba(248, 255, 0, 1)" stroke-width="1.5"></path><path d="M174.74 310.69L174.74 310.69" stroke="rgba(248, 255, 0, 1)" stroke-width="1.5"></path><path d="M174.74 310.69L305.01 327.94" stroke="rgba(248, 255, 0, 1)" stroke-width="1.5"></path><path d="M174.74 310.69L165.64 452.5" stroke="rgba(248, 255, 0, 1)" stroke-width="1.5"></path><path d="M174.74 310.69L295.61 430.22" stroke="rgba(248, 255, 0, 1)" stroke-width="1.5"></path><path d="M174.74 310.69L-41.25 422.77" stroke="rgba(248, 255, 0, 1)" stroke-width="1.5"></path><path d="M165.64 452.5L165.64 452.5" stroke="rgba(248, 255, 0, 1)" stroke-width="1.5"></path><path d="M165.64 452.5L295.61 430.22" stroke="rgba(248, 255, 0, 1)" stroke-width="1.5"></path><path d="M165.64 452.5L77.63 333.54" stroke="rgba(248, 255, 0, 1)" stroke-width="1.5"></path><path d="M305.01 327.94L305.01 327.94" stroke="rgba(248, 255, 0, 1)" stroke-width="1.5"></path><path d="M305.01 327.94L295.61 430.22" stroke="rgba(248, 255, 0, 1)" stroke-width="1.5"></path><path d="M305.01 327.94L435.36 291.52" stroke="rgba(248, 255, 0, 1)" stroke-width="1.5"></path><path d="M305.01 327.94L413.7 422.21" stroke="rgba(248, 255, 0, 1)" stroke-width="1.5"></path><path d="M305.01 327.94L426.82 209.12" stroke="rgba(248, 255, 0, 1)" stroke-width="1.5"></path><path d="M305.01 327.94L165.64 452.5" stroke="rgba(248, 255, 0, 1)" stroke-width="1.5"></path><path d="M295.61 430.22L295.61 430.22" stroke="rgba(248, 255, 0, 1)" stroke-width="1.5"></path><path d="M295.61 430.22L413.7 422.21" stroke="rgba(248, 255, 0, 1)" stroke-width="1.5"></path><path d="M295.61 430.22L435.36 291.52" stroke="rgba(248, 255, 0, 1)" stroke-width="1.5"></path><path d="M426.82 209.12L426.82 209.12" stroke="rgba(248, 255, 0, 1)" stroke-width="1.5"></path><path d="M426.82 209.12L435.36 291.52" stroke="rgba(248, 255, 0, 1)" stroke-width="1.5"></path><path d="M426.82 209.12L543.58 205.12" stroke="rgba(248, 255, 0, 1)" stroke-width="1.5"></path><path d="M426.82 209.12L551.39 284.69" stroke="rgba(248, 255, 0, 1)" stroke-width="1.5"></path><path d="M435.36 291.52L435.36 291.52" stroke="rgba(248, 255, 0, 1)" stroke-width="1.5"></path><path d="M435.36 291.52L551.39 284.69" stroke="rgba(248, 255, 0, 1)" stroke-width="1.5"></path><path d="M435.36 291.52L413.7 422.21" stroke="rgba(248, 255, 0, 1)" stroke-width="1.5"></path><path d="M413.7 422.21L413.7 422.21" stroke="rgba(248, 255, 0, 1)" stroke-width="1.5"></path><path d="M413.7 422.21L540.01 466.9" stroke="rgba(248, 255, 0, 1)" stroke-width="1.5"></path><path d="M413.7 422.21L551.39 284.69" stroke="rgba(248, 255, 0, 1)" stroke-width="1.5"></path><path d="M413.7 422.21L426.82 209.12" stroke="rgba(248, 255, 0, 1)" stroke-width="1.5"></path><path d="M543.58 205.12L543.58 205.12" stroke="rgba(248, 255, 0, 1)" stroke-width="1.5"></path><path d="M543.58 205.12L551.39 284.69" stroke="rgba(248, 255, 0, 1)" stroke-width="1.5"></path><path d="M543.58 205.12L435.36 291.52" stroke="rgba(248, 255, 0, 1)" stroke-width="1.5"></path><path d="M543.58 205.12L713.4 158.93" stroke="rgba(248, 255, 0, 1)" stroke-width="1.5"></path><path d="M543.58 205.12L686.08 331.81" stroke="rgba(248, 255, 0, 1)" stroke-width="1.5"></path><path d="M543.58 205.12L716.73 51.33" stroke="rgba(248, 255, 0, 1)" stroke-width="1.5"></path><path d="M551.39 284.69L551.39 284.69" stroke="rgba(248, 255, 0, 1)" stroke-width="1.5"></path><path d="M551.39 284.69L686.08 331.81" stroke="rgba(248, 255, 0, 1)" stroke-width="1.5"></path><path d="M551.39 284.69L540.01 466.9" stroke="rgba(248, 255, 0, 1)" stroke-width="1.5"></path><path d="M540.01 466.9L540.01 466.9" stroke="rgba(248, 255, 0, 1)" stroke-width="1.5"></path><path d="M540.01 466.9L718.67 432.97" stroke="rgba(248, 255, 0, 1)" stroke-width="1.5"></path><path d="M667.89 -58.79L667.89 -58.79" stroke="rgba(248, 255, 0, 1)" stroke-width="1.5"></path><path d="M667.89 -58.79L716.73 51.33" stroke="rgba(248, 255, 0, 1)" stroke-width="1.5"></path><path d="M667.89 -58.79L808.36 -78.77" stroke="rgba(248, 255, 0, 1)" stroke-width="1.5"></path><path d="M667.89 -58.79L822.67 82.91" stroke="rgba(248, 255, 0, 1)" stroke-width="1.5"></path><path d="M716.73 51.33L716.73 51.33" stroke="rgba(248, 255, 0, 1)" stroke-width="1.5"></path><path d="M716.73 51.33L713.4 158.93" stroke="rgba(248, 255, 0, 1)" stroke-width="1.5"></path><path d="M716.73 51.33L822.67 82.91" stroke="rgba(248, 255, 0, 1)" stroke-width="1.5"></path><path d="M713.4 158.93L713.4 158.93" stroke="rgba(248, 255, 0, 1)" stroke-width="1.5"></path><path d="M713.4 158.93L825.28 166.73" stroke="rgba(248, 255, 0, 1)" stroke-width="1.5"></path><path d="M713.4 158.93L822.67 82.91" stroke="rgba(248, 255, 0, 1)" stroke-width="1.5"></path><path d="M686.08 331.81L686.08 331.81" stroke="rgba(248, 255, 0, 1)" stroke-width="1.5"></path><path d="M686.08 331.81L785.39 333.27" stroke="rgba(248, 255, 0, 1)" stroke-width="1.5"></path><path d="M686.08 331.81L718.67 432.97" stroke="rgba(248, 255, 0, 1)" stroke-width="1.5"></path><path d="M718.67 432.97L718.67 432.97" stroke="rgba(248, 255, 0, 1)" stroke-width="1.5"></path><path d="M718.67 432.97L816.36 433.36" stroke="rgba(248, 255, 0, 1)" stroke-width="1.5"></path><path d="M718.67 432.97L785.39 333.27" stroke="rgba(248, 255, 0, 1)" stroke-width="1.5"></path><path d="M808.36 -78.77L808.36 -78.77" stroke="rgba(248, 255, 0, 1)" stroke-width="1.5"></path><path d="M808.36 -78.77L716.73 51.33" stroke="rgba(248, 255, 0, 1)" stroke-width="1.5"></path><path d="M808.36 -78.77L822.67 82.91" stroke="rgba(248, 255, 0, 1)" stroke-width="1.5"></path><path d="M822.67 82.91L822.67 82.91" stroke="rgba(248, 255, 0, 1)" stroke-width="1.5"></path><path d="M822.67 82.91L825.28 166.73" stroke="rgba(248, 255, 0, 1)" stroke-width="1.5"></path><path d="M822.67 82.91L926.31 43.18" stroke="rgba(248, 255, 0, 1)" stroke-width="1.5"></path><path d="M825.28 166.73L825.28 166.73" stroke="rgba(248, 255, 0, 1)" stroke-width="1.5"></path><path d="M825.28 166.73L948.26 189.42" stroke="rgba(248, 255, 0, 1)" stroke-width="1.5"></path><path d="M825.28 166.73L716.73 51.33" stroke="rgba(248, 255, 0, 1)" stroke-width="1.5"></path><path d="M825.28 166.73L926.31 43.18" stroke="rgba(248, 255, 0, 1)" stroke-width="1.5"></path><path d="M785.39 333.27L785.39 333.27" stroke="rgba(248, 255, 0, 1)" stroke-width="1.5"></path><path d="M785.39 333.27L816.36 433.36" stroke="rgba(248, 255, 0, 1)" stroke-width="1.5"></path><path d="M816.36 433.36L816.36 433.36" stroke="rgba(248, 255, 0, 1)" stroke-width="1.5"></path><path d="M816.36 433.36L931.44 460.02" stroke="rgba(248, 255, 0, 1)" stroke-width="1.5"></path><path d="M926.31 43.18L926.31 43.18" stroke="rgba(248, 255, 0, 1)" stroke-width="1.5"></path><path d="M926.31 43.18L1040.12 65.83" stroke="rgba(248, 255, 0, 1)" stroke-width="1.5"></path><path d="M926.31 43.18L948.26 189.42" stroke="rgba(248, 255, 0, 1)" stroke-width="1.5"></path><path d="M926.31 43.18L1059.06 -50.71" stroke="rgba(248, 255, 0, 1)" stroke-width="1.5"></path><path d="M926.31 43.18L808.36 -78.77" stroke="rgba(248, 255, 0, 1)" stroke-width="1.5"></path><path d="M948.26 189.42L948.26 189.42" stroke="rgba(248, 255, 0, 1)" stroke-width="1.5"></path><path d="M948.26 189.42L1080.44 189.31" stroke="rgba(248, 255, 0, 1)" stroke-width="1.5"></path><path d="M967.37 340.95L967.37 340.95" stroke="rgba(248, 255, 0, 1)" stroke-width="1.5"></path><path d="M967.37 340.95L1079.02 343.36" stroke="rgba(248, 255, 0, 1)" stroke-width="1.5"></path><path d="M967.37 340.95L931.44 460.02" stroke="rgba(248, 255, 0, 1)" stroke-width="1.5"></path><path d="M931.44 460.02L931.44 460.02" stroke="rgba(248, 255, 0, 1)" stroke-width="1.5"></path><path d="M931.44 460.02L1034.22 466.27" stroke="rgba(248, 255, 0, 1)" stroke-width="1.5"></path><path d="M931.44 460.02L1079.02 343.36" stroke="rgba(248, 255, 0, 1)" stroke-width="1.5"></path><path d="M1059.06 -50.71L1059.06 -50.71" stroke="rgba(248, 255, 0, 1)" stroke-width="1.5"></path><path d="M1059.06 -50.71L1040.12 65.83" stroke="rgba(248, 255, 0, 1)" stroke-width="1.5"></path><path d="M1040.12 65.83L1040.12 65.83" stroke="rgba(248, 255, 0, 1)" stroke-width="1.5"></path><path d="M1040.12 65.83L1080.44 189.31" stroke="rgba(248, 255, 0, 1)" stroke-width="1.5"></path><path d="M1040.12 65.83L948.26 189.42" stroke="rgba(248, 255, 0, 1)" stroke-width="1.5"></path><path d="M1040.12 65.83L822.67 82.91" stroke="rgba(248, 255, 0, 1)" stroke-width="1.5"></path><path d="M1040.12 65.83L825.28 166.73" stroke="rgba(248, 255, 0, 1)" stroke-width="1.5"></path><path d="M1080.44 189.31L1080.44 189.31" stroke="rgba(248, 255, 0, 1)" stroke-width="1.5"></path><path d="M1080.44 189.31L1079.02 343.36" stroke="rgba(248, 255, 0, 1)" stroke-width="1.5"></path><path d="M1080.44 189.31L967.37 340.95" stroke="rgba(248, 255, 0, 1)" stroke-width="1.5"></path><path d="M1080.44 189.31L926.31 43.18" stroke="rgba(248, 255, 0, 1)" stroke-width="1.5"></path><path d="M1079.02 343.36L1079.02 343.36" stroke="rgba(248, 255, 0, 1)" stroke-width="1.5"></path><path d="M1079.02 343.36L1034.22 466.27" stroke="rgba(248, 255, 0, 1)" stroke-width="1.5"></path><path d="M1079.02 343.36L948.26 189.42" stroke="rgba(248, 255, 0, 1)" stroke-width="1.5"></path><path d="M1034.22 466.27L1034.22 466.27" stroke="rgba(248, 255, 0, 1)" stroke-width="1.5"></path><path d="M1034.22 466.27L967.37 340.95" stroke="rgba(248, 255, 0, 1)" stroke-width="1.5"></path><path d="M1034.22 466.27L816.36 433.36" stroke="rgba(248, 255, 0, 1)" stroke-width="1.5"></path><circle r="5" cx="-93.12" cy="285.03" fill="rgba(248, 255, 0, 1)"></circle><circle r="5" cx="-41.25" cy="422.77" fill="rgba(248, 255, 0, 1)"></circle><circle r="5" cx="77.63" cy="333.54" fill="rgba(248, 255, 0, 1)"></circle><circle r="5" cx="91.57" cy="439.73" fill="rgba(248, 255, 0, 1)"></circle><circle r="5" cx="174.74" cy="310.69" fill="rgba(248, 255, 0, 1)"></circle><circle r="5" cx="165.64" cy="452.5" fill="rgba(248, 255, 0, 1)"></circle><circle r="5" cx="305.01" cy="327.94" fill="rgba(248, 255, 0, 1)"></circle><circle r="5" cx="295.61" cy="430.22" fill="rgba(248, 255, 0, 1)"></circle><circle r="5" cx="426.82" cy="209.12" fill="rgba(248, 255, 0, 1)"></circle><circle r="5" cx="435.36" cy="291.52" fill="rgba(248, 255, 0, 1)"></circle><circle r="5" cx="413.7" cy="422.21" fill="rgba(248, 255, 0, 1)"></circle><circle r="5" cx="543.58" cy="205.12" fill="rgba(248, 255, 0, 1)"></circle><circle r="5" cx="551.39" cy="284.69" fill="rgba(248, 255, 0, 1)"></circle><circle r="5" cx="540.01" cy="466.9" fill="rgba(248, 255, 0, 1)"></circle><circle r="5" cx="667.89" cy="-58.79" fill="rgba(248, 255, 0, 1)"></circle><circle r="5" cx="716.73" cy="51.33" fill="rgba(248, 255, 0, 1)"></circle><circle r="5" cx="713.4" cy="158.93" fill="rgba(248, 255, 0, 1)"></circle><circle r="5" cx="686.08" cy="331.81" fill="rgba(248, 255, 0, 1)"></circle><circle r="5" cx="718.67" cy="432.97" fill="rgba(248, 255, 0, 1)"></circle><circle r="5" cx="808.36" cy="-78.77" fill="rgba(248, 255, 0, 1)"></circle><circle r="5" cx="822.67" cy="82.91" fill="rgba(248, 255, 0, 1)"></circle><circle r="5" cx="825.28" cy="166.73" fill="rgba(248, 255, 0, 1)"></circle><circle r="5" cx="785.39" cy="333.27" fill="rgba(248, 255, 0, 1)"></circle><circle r="5" cx="816.36" cy="433.36" fill="rgba(248, 255, 0, 1)"></circle><circle r="5" cx="926.31" cy="43.18" fill="rgba(248, 255, 0, 1)"></circle><circle r="5" cx="948.26" cy="189.42" fill="rgba(248, 255, 0, 1)"></circle><circle r="5" cx="967.37" cy="340.95" fill="rgba(248, 255, 0, 1)"></circle><circle r="5" cx="931.44" cy="460.02" fill="rgba(248, 255, 0, 1)"></circle><circle r="5" cx="1059.06" cy="-50.71" fill="rgba(248, 255, 0, 1)"></circle><circle r="5" cx="1040.12" cy="65.83" fill="rgba(248, 255, 0, 1)"></circle><circle r="5" cx="1080.44" cy="189.31" fill="rgba(248, 255, 0, 1)"></circle><circle r="5" cx="1079.02" cy="343.36" fill="rgba(248, 255, 0, 1)"></circle><circle r="5" cx="1034.22" cy="466.27" fill="rgba(248, 255, 0, 1)"></circle><path d="M-64.26 287.1L-64.26 287.1" stroke="hsl(174.79999999999995, 100%, 65%)" stroke-width="1.5"></path><path d="M-64.26 287.1L83.59 316.67" stroke="hsl(174.79999999999995, 100%, 65%)" stroke-width="1.5"></path><path d="M-64.26 287.1L78.51 465.43" stroke="hsl(174.79999999999995, 100%, 65%)" stroke-width="1.5"></path><path d="M-64.26 287.1L162.75 314.48" stroke="hsl(174.79999999999995, 100%, 65%)" stroke-width="1.5"></path><path d="M78.51 465.43L78.51 465.43" stroke="hsl(174.79999999999995, 100%, 65%)" stroke-width="1.5"></path><path d="M78.51 465.43L168.71 467.31" stroke="hsl(174.79999999999995, 100%, 65%)" stroke-width="1.5"></path><path d="M78.51 465.43L83.59 316.67" stroke="hsl(174.79999999999995, 100%, 65%)" stroke-width="1.5"></path><path d="M78.51 465.43L162.75 314.48" stroke="hsl(174.79999999999995, 100%, 65%)" stroke-width="1.5"></path><path d="M690.5 431.32L690.5 431.32" stroke="hsl(174.79999999999995, 100%, 65%)" stroke-width="1.5"></path><path d="M690.5 431.32L578.27 406.5" stroke="hsl(174.79999999999995, 100%, 65%)" stroke-width="1.5"></path><path d="M690.5 431.32L821.44 440.55" stroke="hsl(174.79999999999995, 100%, 65%)" stroke-width="1.5"></path><path d="M690.5 431.32L702.53 285.5" stroke="hsl(174.79999999999995, 100%, 65%)" stroke-width="1.5"></path><path d="M690.5 431.32L816.32 332.36" stroke="hsl(174.79999999999995, 100%, 65%)" stroke-width="1.5"></path><path d="M690.5 431.32L550.69 324.45" stroke="hsl(174.79999999999995, 100%, 65%)" stroke-width="1.5"></path><path d="M786.72 85.85L786.72 85.85" stroke="hsl(174.79999999999995, 100%, 65%)" stroke-width="1.5"></path><path d="M786.72 85.85L790.99 183.01" stroke="hsl(174.79999999999995, 100%, 65%)" stroke-width="1.5"></path><path d="M786.72 85.85L946.78 51.19" stroke="hsl(174.79999999999995, 100%, 65%)" stroke-width="1.5"></path><path d="M786.72 85.85L670.13 208.46" stroke="hsl(174.79999999999995, 100%, 65%)" stroke-width="1.5"></path><path d="M786.72 85.85L923.47 -50.07" stroke="hsl(174.79999999999995, 100%, 65%)" stroke-width="1.5"></path><path d="M786.72 85.85L966.63 162.6" stroke="hsl(174.79999999999995, 100%, 65%)" stroke-width="1.5"></path><path d="M790.99 183.01L790.99 183.01" stroke="hsl(174.79999999999995, 100%, 65%)" stroke-width="1.5"></path><path d="M790.99 183.01L670.13 208.46" stroke="hsl(174.79999999999995, 100%, 65%)" stroke-width="1.5"></path><path d="M83.59 316.67L83.59 316.67" stroke="hsl(174.79999999999995, 100%, 65%)" stroke-width="1.5"></path><path d="M83.59 316.67L162.75 314.48" stroke="hsl(174.79999999999995, 100%, 65%)" stroke-width="1.5"></path><path d="M83.59 316.67L168.71 467.31" stroke="hsl(174.79999999999995, 100%, 65%)" stroke-width="1.5"></path><path d="M83.59 316.67L290.14 410.74" stroke="hsl(174.79999999999995, 100%, 65%)" stroke-width="1.5"></path><path d="M83.59 316.67L310.29 298.36" stroke="hsl(174.79999999999995, 100%, 65%)" stroke-width="1.5"></path><path d="M162.75 314.48L162.75 314.48" stroke="hsl(174.79999999999995, 100%, 65%)" stroke-width="1.5"></path><path d="M162.75 314.48L310.29 298.36" stroke="hsl(174.79999999999995, 100%, 65%)" stroke-width="1.5"></path><path d="M168.71 467.31L168.71 467.31" stroke="hsl(174.79999999999995, 100%, 65%)" stroke-width="1.5"></path><path d="M168.71 467.31L290.14 410.74" stroke="hsl(174.79999999999995, 100%, 65%)" stroke-width="1.5"></path><path d="M168.71 467.31L162.75 314.48" stroke="hsl(174.79999999999995, 100%, 65%)" stroke-width="1.5"></path><path d="M168.71 467.31L310.29 298.36" stroke="hsl(174.79999999999995, 100%, 65%)" stroke-width="1.5"></path><path d="M168.71 467.31L450.72 458.54" stroke="hsl(174.79999999999995, 100%, 65%)" stroke-width="1.5"></path><path d="M310.29 298.36L310.29 298.36" stroke="hsl(174.79999999999995, 100%, 65%)" stroke-width="1.5"></path><path d="M310.29 298.36L290.14 410.74" stroke="hsl(174.79999999999995, 100%, 65%)" stroke-width="1.5"></path><path d="M310.29 298.36L464.78 312.8" stroke="hsl(174.79999999999995, 100%, 65%)" stroke-width="1.5"></path><path d="M290.14 410.74L290.14 410.74" stroke="hsl(174.79999999999995, 100%, 65%)" stroke-width="1.5"></path><path d="M290.14 410.74L162.75 314.48" stroke="hsl(174.79999999999995, 100%, 65%)" stroke-width="1.5"></path><path d="M290.14 410.74L450.72 458.54" stroke="hsl(174.79999999999995, 100%, 65%)" stroke-width="1.5"></path><path d="M464.78 312.8L464.78 312.8" stroke="hsl(174.79999999999995, 100%, 65%)" stroke-width="1.5"></path><path d="M464.78 312.8L550.69 324.45" stroke="hsl(174.79999999999995, 100%, 65%)" stroke-width="1.5"></path><path d="M464.78 312.8L450.72 458.54" stroke="hsl(174.79999999999995, 100%, 65%)" stroke-width="1.5"></path><path d="M464.78 312.8L578.27 406.5" stroke="hsl(174.79999999999995, 100%, 65%)" stroke-width="1.5"></path><path d="M464.78 312.8L290.14 410.74" stroke="hsl(174.79999999999995, 100%, 65%)" stroke-width="1.5"></path><path d="M464.78 312.8L670.13 208.46" stroke="hsl(174.79999999999995, 100%, 65%)" stroke-width="1.5"></path><path d="M450.72 458.54L450.72 458.54" stroke="hsl(174.79999999999995, 100%, 65%)" stroke-width="1.5"></path><path d="M450.72 458.54L578.27 406.5" stroke="hsl(174.79999999999995, 100%, 65%)" stroke-width="1.5"></path><path d="M450.72 458.54L550.69 324.45" stroke="hsl(174.79999999999995, 100%, 65%)" stroke-width="1.5"></path><path d="M450.72 458.54L310.29 298.36" stroke="hsl(174.79999999999995, 100%, 65%)" stroke-width="1.5"></path><path d="M450.72 458.54L690.5 431.32" stroke="hsl(174.79999999999995, 100%, 65%)" stroke-width="1.5"></path><path d="M550.69 324.45L550.69 324.45" stroke="hsl(174.79999999999995, 100%, 65%)" stroke-width="1.5"></path><path d="M550.69 324.45L578.27 406.5" stroke="hsl(174.79999999999995, 100%, 65%)" stroke-width="1.5"></path><path d="M550.69 324.45L702.53 285.5" stroke="hsl(174.79999999999995, 100%, 65%)" stroke-width="1.5"></path><path d="M578.27 406.5L578.27 406.5" stroke="hsl(174.79999999999995, 100%, 65%)" stroke-width="1.5"></path><path d="M578.27 406.5L702.53 285.5" stroke="hsl(174.79999999999995, 100%, 65%)" stroke-width="1.5"></path><path d="M578.27 406.5L670.13 208.46" stroke="hsl(174.79999999999995, 100%, 65%)" stroke-width="1.5"></path><path d="M670.13 208.46L670.13 208.46" stroke="hsl(174.79999999999995, 100%, 65%)" stroke-width="1.5"></path><path d="M670.13 208.46L702.53 285.5" stroke="hsl(174.79999999999995, 100%, 65%)" stroke-width="1.5"></path><path d="M702.53 285.5L702.53 285.5" stroke="hsl(174.79999999999995, 100%, 65%)" stroke-width="1.5"></path><path d="M702.53 285.5L816.32 332.36" stroke="hsl(174.79999999999995, 100%, 65%)" stroke-width="1.5"></path><path d="M702.53 285.5L790.99 183.01" stroke="hsl(174.79999999999995, 100%, 65%)" stroke-width="1.5"></path><path d="M816.32 332.36L816.32 332.36" stroke="hsl(174.79999999999995, 100%, 65%)" stroke-width="1.5"></path><path d="M816.32 332.36L821.44 440.55" stroke="hsl(174.79999999999995, 100%, 65%)" stroke-width="1.5"></path><path d="M816.32 332.36L951.09 302.57" stroke="hsl(174.79999999999995, 100%, 65%)" stroke-width="1.5"></path><path d="M821.44 440.55L821.44 440.55" stroke="hsl(174.79999999999995, 100%, 65%)" stroke-width="1.5"></path><path d="M923.47 -50.07L923.47 -50.07" stroke="hsl(174.79999999999995, 100%, 65%)" stroke-width="1.5"></path><path d="M923.47 -50.07L946.78 51.19" stroke="hsl(174.79999999999995, 100%, 65%)" stroke-width="1.5"></path><path d="M923.47 -50.07L1053.4 -57.49" stroke="hsl(174.79999999999995, 100%, 65%)" stroke-width="1.5"></path><path d="M923.47 -50.07L1072.04 92.03" stroke="hsl(174.79999999999995, 100%, 65%)" stroke-width="1.5"></path><path d="M923.47 -50.07L966.63 162.6" stroke="hsl(174.79999999999995, 100%, 65%)" stroke-width="1.5"></path><path d="M946.78 51.19L946.78 51.19" stroke="hsl(174.79999999999995, 100%, 65%)" stroke-width="1.5"></path><path d="M946.78 51.19L966.63 162.6" stroke="hsl(174.79999999999995, 100%, 65%)" stroke-width="1.5"></path><path d="M946.78 51.19L1072.04 92.03" stroke="hsl(174.79999999999995, 100%, 65%)" stroke-width="1.5"></path><path d="M946.78 51.19L1053.4 -57.49" stroke="hsl(174.79999999999995, 100%, 65%)" stroke-width="1.5"></path><path d="M946.78 51.19L1042.68 208.46" stroke="hsl(174.79999999999995, 100%, 65%)" stroke-width="1.5"></path><path d="M966.63 162.6L966.63 162.6" stroke="hsl(174.79999999999995, 100%, 65%)" stroke-width="1.5"></path><path d="M966.63 162.6L1042.68 208.46" stroke="hsl(174.79999999999995, 100%, 65%)" stroke-width="1.5"></path><path d="M951.09 302.57L951.09 302.57" stroke="hsl(174.79999999999995, 100%, 65%)" stroke-width="1.5"></path><path d="M951.09 302.57L1042.68 208.46" stroke="hsl(174.79999999999995, 100%, 65%)" stroke-width="1.5"></path><path d="M955.75 436.61L955.75 436.61" stroke="hsl(174.79999999999995, 100%, 65%)" stroke-width="1.5"></path><path d="M955.75 436.61L1031.43 458.79" stroke="hsl(174.79999999999995, 100%, 65%)" stroke-width="1.5"></path><path d="M955.75 436.61L951.09 302.57" stroke="hsl(174.79999999999995, 100%, 65%)" stroke-width="1.5"></path><path d="M955.75 436.61L821.44 440.55" stroke="hsl(174.79999999999995, 100%, 65%)" stroke-width="1.5"></path><path d="M955.75 436.61L816.32 332.36" stroke="hsl(174.79999999999995, 100%, 65%)" stroke-width="1.5"></path><path d="M955.75 436.61L1083.52 299.75" stroke="hsl(174.79999999999995, 100%, 65%)" stroke-width="1.5"></path><path d="M955.75 436.61L1042.68 208.46" stroke="hsl(174.79999999999995, 100%, 65%)" stroke-width="1.5"></path><path d="M1053.4 -57.49L1053.4 -57.49" stroke="hsl(174.79999999999995, 100%, 65%)" stroke-width="1.5"></path><path d="M1053.4 -57.49L1072.04 92.03" stroke="hsl(174.79999999999995, 100%, 65%)" stroke-width="1.5"></path><path d="M1053.4 -57.49L966.63 162.6" stroke="hsl(174.79999999999995, 100%, 65%)" stroke-width="1.5"></path><path d="M1053.4 -57.49L1042.68 208.46" stroke="hsl(174.79999999999995, 100%, 65%)" stroke-width="1.5"></path><path d="M1053.4 -57.49L786.72 85.85" stroke="hsl(174.79999999999995, 100%, 65%)" stroke-width="1.5"></path><path d="M1072.04 92.03L1072.04 92.03" stroke="hsl(174.79999999999995, 100%, 65%)" stroke-width="1.5"></path><path d="M1072.04 92.03L1042.68 208.46" stroke="hsl(174.79999999999995, 100%, 65%)" stroke-width="1.5"></path><path d="M1072.04 92.03L966.63 162.6" stroke="hsl(174.79999999999995, 100%, 65%)" stroke-width="1.5"></path><path d="M1042.68 208.46L1042.68 208.46" stroke="hsl(174.79999999999995, 100%, 65%)" stroke-width="1.5"></path><path d="M1042.68 208.46L1083.52 299.75" stroke="hsl(174.79999999999995, 100%, 65%)" stroke-width="1.5"></path><path d="M1083.52 299.75L1083.52 299.75" stroke="hsl(174.79999999999995, 100%, 65%)" stroke-width="1.5"></path><path d="M1083.52 299.75L951.09 302.57" stroke="hsl(174.79999999999995, 100%, 65%)" stroke-width="1.5"></path><path d="M1083.52 299.75L1031.43 458.79" stroke="hsl(174.79999999999995, 100%, 65%)" stroke-width="1.5"></path><path d="M1083.52 299.75L966.63 162.6" stroke="hsl(174.79999999999995, 100%, 65%)" stroke-width="1.5"></path><path d="M1031.43 458.79L1031.43 458.79" stroke="hsl(174.79999999999995, 100%, 65%)" stroke-width="1.5"></path><path d="M1031.43 458.79L951.09 302.57" stroke="hsl(174.79999999999995, 100%, 65%)" stroke-width="1.5"></path><path d="M1031.43 458.79L821.44 440.55" stroke="hsl(174.79999999999995, 100%, 65%)" stroke-width="1.5"></path><path d="M1031.43 458.79L816.32 332.36" stroke="hsl(174.79999999999995, 100%, 65%)" stroke-width="1.5"></path><path d="M1031.43 458.79L1042.68 208.46" stroke="hsl(174.79999999999995, 100%, 65%)" stroke-width="1.5"></path><circle r="25" cx="-64.26" cy="287.1" fill="url(&quot;#SvgjsRadialGradient5304&quot;)"></circle><circle r="25" cx="78.51" cy="465.43" fill="url(&quot;#SvgjsRadialGradient5304&quot;)"></circle><circle r="25" cx="690.5" cy="431.32" fill="url(&quot;#SvgjsRadialGradient5304&quot;)"></circle><circle r="25" cx="786.72" cy="85.85" fill="url(&quot;#SvgjsRadialGradient5304&quot;)"></circle><circle r="25" cx="790.99" cy="183.01" fill="url(&quot;#SvgjsRadialGradient5304&quot;)"></circle><circle r="5" cx="83.59" cy="316.67" fill="#80fff4"></circle><circle r="5" cx="162.75" cy="314.48" fill="#80fff4"></circle><circle r="5" cx="168.71" cy="467.31" fill="#80fff4"></circle><circle r="5" cx="310.29" cy="298.36" fill="#80fff4"></circle><circle r="5" cx="290.14" cy="410.74" fill="#80fff4"></circle><circle r="5" cx="464.78" cy="312.8" fill="#80fff4"></circle><circle r="5" cx="450.72" cy="458.54" fill="#80fff4"></circle><circle r="5" cx="550.69" cy="324.45" fill="#80fff4"></circle><circle r="5" cx="578.27" cy="406.5" fill="#80fff4"></circle><circle r="5" cx="670.13" cy="208.46" fill="#80fff4"></circle><circle r="5" cx="702.53" cy="285.5" fill="#80fff4"></circle><circle r="5" cx="816.32" cy="332.36" fill="#80fff4"></circle><circle r="5" cx="821.44" cy="440.55" fill="#80fff4"></circle><circle r="5" cx="923.47" cy="-50.07" fill="#80fff4"></circle><circle r="5" cx="946.78" cy="51.19" fill="#80fff4"></circle><circle r="5" cx="966.63" cy="162.6" fill="#80fff4"></circle><circle r="5" cx="951.09" cy="302.57" fill="#80fff4"></circle><circle r="5" cx="955.75" cy="436.61" fill="#80fff4"></circle><circle r="5" cx="1053.4" cy="-57.49" fill="#80fff4"></circle><circle r="5" cx="1072.04" cy="92.03" fill="#80fff4"></circle><circle r="5" cx="1042.68" cy="208.46" fill="#80fff4"></circle><circle r="5" cx="1083.52" cy="299.75" fill="#80fff4"></circle><circle r="5" cx="1031.43" cy="458.79" fill="#80fff4"></circle></g><defs><mask id="SvgjsMask5302"><rect width="1000" height="360" fill="#ffffff"></rect></mask><linearGradient x1="84%" y1="144.44%" x2="16%" y2="-44.44%" gradientUnits="userSpaceOnUse" id="SvgjsLinearGradient5303"><stop stop-color="rgba(0, 48, 255, 1)" offset="0"></stop><stop stop-color="rgba(255, 0, 0, 1)" offset="1"></stop></linearGradient><radialGradient id="SvgjsRadialGradient5304"><stop stop-color="#ffffff" offset="0.1"></stop><stop stop-color="rgba(0, 255, 233, 1)" offset="0.2"></stop><stop stop-color="rgba(0, 255, 233, 0)" offset="1"></stop></radialGradient></defs></svg>